# xmcd
#
# Track frame offsets:
#	150
#	19250
#	35527
#	49575
#
# Disc length: 922 seconds
#
# Revision: 5
# Processed by: cddbd v1.4PL0 Copyright (c) Steve Scherf et al.
# Submitted via: audiograbber 1.82.00
#
DISCID=2a039804
DTITLE=Radiohead - Street Spirit (Fade Out) (2 Meter Sessions CD Single)
DYEAR=1996
DGENRE=Alternative Rock
TTITLE0=Street Spirit (Fade Out)
TTITLE1=Anyone Can Play Guitar (2 Meter Session)
TTITLE2=Bones (2 Meter Session)
TTITLE3=Street Spirit (Fade Out) (2 Meter Session)
EXTD=
EXTT0=
EXTT1=
EXTT2=
EXTT3=
PLAYORDER=
